<?xml version="1.0" encoding="UTF-8"?>
<svg xmlns="http://www.w3.org/2000/svg" xmlns:xlink="http://www.w3.org/1999/xlink" width="512px" height="561px" viewBox="0 0 512 556" version="1.1">
<defs>
<filter id="alpha" filterUnits="objectBoundingBox" x="0%" y="0%" width="100%" height="100%">
  <feColorMatrix type="matrix" in="SourceGraphic" values="0 0 0 0 1 0 0 0 0 1 0 0 0 0 1 0 0 0 1 0"/>
</filter>
<mask id="mask0">
  <g filter="url(#alpha)">
<rect x="0" y="0" width="512" height="556" style="fill:rgb(0%,0%,0%);fill-opacity:0.25098;stroke:none;"/>
  </g>
</mask>
<clipPath id="clip1">
  <rect x="0" y="0" width="512" height="556"/>
</clipPath>
<g id="surface5" clip-path="url(#clip1)">
<path style=" stroke:none;fill-rule:nonzero;fill:rgb(7.45098%,9.803922%,17.647059%);fill-opacity:1;" d="M 399.75 195.710938 C 408.011719 225.734375 407.339844 257.515625 397.820312 287.164062 C 379.226562 343.632812 334.496094 371.339844 316.253906 382.476562 C 283.148438 402.472656 245.210938 413.050781 206.535156 413.074219 L 286.082031 413.074219 C 359.667969 413.074219 415.535156 350.644531 415.535156 265.59375 C 416.011719 241.363281 410.59375 217.382812 399.75 195.710938 Z M 399.75 195.710938 "/>
</g>
</defs>
<g id="surface1">
<path style=" stroke:none;fill-rule:nonzero;fill:rgb(32.156863%,69.803922%,40%);fill-opacity:1;" d="M 283.1875 128.367188 L 174.347656 128.367188 C 168.410156 127.925781 162.722656 130.84375 159.621094 135.921875 C 156.515625 141 156.515625 147.390625 159.621094 152.46875 C 162.722656 157.546875 168.410156 160.464844 174.347656 160.023438 L 217.410156 160.023438 C 226.128906 160.023438 233.195312 167.089844 233.195312 175.804688 C 233.195312 184.523438 226.128906 191.589844 217.410156 191.589844 L 97.78125 191.589844 C 91.84375 191.144531 86.15625 194.0625 83.054688 199.140625 C 79.949219 204.222656 79.949219 210.609375 83.054688 215.6875 C 86.15625 220.769531 91.84375 223.683594 97.78125 223.242188 L 184.519531 223.242188 C 192.199219 224.398438 197.878906 230.996094 197.878906 238.761719 C 197.878906 246.527344 192.199219 253.125 184.519531 254.28125 L 143.300781 254.28125 C 137.363281 253.839844 131.675781 256.753906 128.574219 261.835938 C 125.46875 266.914062 125.46875 273.300781 128.574219 278.382812 C 131.675781 283.460938 137.363281 286.378906 143.300781 285.933594 L 193.117188 285.933594 C 201.835938 285.933594 208.902344 293 208.902344 301.71875 C 208.902344 310.433594 201.835938 317.5 193.117188 317.5 L 153.558594 317.5 C 144.839844 317.5 137.773438 324.566406 137.773438 333.285156 C 137.773438 342 144.839844 349.066406 153.558594 349.066406 L 187.765625 349.066406 C 193.734375 348.625 199.449219 351.558594 202.570312 356.664062 C 205.691406 361.769531 205.691406 368.191406 202.570312 373.300781 C 199.449219 378.40625 193.734375 381.339844 187.765625 380.894531 L 128.738281 380.894531 C 120.019531 380.894531 112.953125 387.960938 112.953125 396.679688 C 112.953125 405.394531 120.019531 412.460938 128.738281 412.460938 L 286.082031 412.460938 C 359.667969 412.460938 415.535156 350.03125 415.535156 264.980469 C 415.535156 171.507812 347.738281 128.367188 283.1875 128.367188 Z M 362.125 288.652344 C 348.003906 337.582031 307.832031 367.042969 266.523438 355.117188 L 257.753906 352.75 C 239.160156 347.3125 234.601562 338.371094 239.160156 322.585938 L 283.890625 167.386719 C 290.554688 167.824219 297.175781 168.730469 303.710938 170.105469 L 314.675781 173.261719 C 357.914062 185.714844 379.3125 227.976562 361.859375 288.652344 Z M 362.125 288.652344 "/>
<path style=" stroke:none;fill-rule:nonzero;fill:rgb(32.156863%,69.803922%,40%);fill-opacity:1;" d="M 111.726562 270.941406 C 111.726562 279.464844 104.8125 286.375 96.289062 286.375 C 87.765625 286.375 80.851562 279.464844 80.851562 270.941406 C 80.851562 262.417969 87.765625 255.507812 96.289062 255.507812 C 104.8125 255.507812 111.726562 262.417969 111.726562 270.941406 Z M 111.726562 270.941406 "/>
<use xlink:href="#surface5" mask="url(#mask0)"/>
</g>
</svg>
